<mxfile host="app.diagrams.net" modified="2021-11-14T15:14:41.814Z" agent="5.0 (Windows NT 10.0; Win64; x64) AppleWebKit/537.36 (KHTML, like Gecko) Chrome/95.0.4638.69 Safari/537.36" etag="1rDWBB0XQna_odQ8tg6K" version="15.5.6" type="github">
  <diagram id="0yy8EXLkq8YyQuRQiSqO" name="Page-1">
    <mxGraphModel dx="1422" dy="762" grid="1" gridSize="10" guides="1" tooltips="1" connect="1" arrows="1" fold="1" page="1" pageScale="1" pageWidth="1169" pageHeight="827" math="0" shadow="0">
      <root>
        <mxCell id="0" />
        <mxCell id="1" parent="0" />
        <mxCell id="7uKGe8dXWOPL08wrU0GV-45" value="SVM_ADMIN" style="rounded=0;whiteSpace=wrap;html=1;glass=0;sketch=0;fontSize=12;verticalAlign=bottom;" vertex="1" parent="1">
          <mxGeometry x="550" y="220" width="580" height="370" as="geometry" />
        </mxCell>
        <mxCell id="7uKGe8dXWOPL08wrU0GV-42" value="SVM_CI" style="rounded=0;whiteSpace=wrap;html=1;glass=0;sketch=0;fontSize=12;verticalAlign=bottom;" vertex="1" parent="1">
          <mxGeometry x="260" y="220" width="220" height="370" as="geometry" />
        </mxCell>
        <mxCell id="7uKGe8dXWOPL08wrU0GV-41" value="Laptop" style="rounded=0;whiteSpace=wrap;html=1;glass=0;sketch=0;fontSize=12;verticalAlign=bottom;" vertex="1" parent="1">
          <mxGeometry x="80" y="220" width="150" height="370" as="geometry" />
        </mxCell>
        <mxCell id="7uKGe8dXWOPL08wrU0GV-1" value="Smoke testcontainers" style="swimlane;fontStyle=0;childLayout=stackLayout;horizontal=1;startSize=30;horizontalStack=0;resizeParent=1;resizeParentMax=0;resizeLast=0;collapsible=1;marginBottom=0;" vertex="1" parent="1">
          <mxGeometry x="40" y="728" width="140" height="90" as="geometry" />
        </mxCell>
        <mxCell id="7uKGe8dXWOPL08wrU0GV-2" value="Johannes Sim" style="text;strokeColor=none;fillColor=none;align=left;verticalAlign=middle;spacingLeft=4;spacingRight=4;overflow=hidden;points=[[0,0.5],[1,0.5]];portConstraint=eastwest;rotatable=0;" vertex="1" parent="7uKGe8dXWOPL08wrU0GV-1">
          <mxGeometry y="30" width="140" height="30" as="geometry" />
        </mxCell>
        <mxCell id="7uKGe8dXWOPL08wrU0GV-3" value="14-11-2021" style="text;strokeColor=none;fillColor=none;align=left;verticalAlign=middle;spacingLeft=4;spacingRight=4;overflow=hidden;points=[[0,0.5],[1,0.5]];portConstraint=eastwest;rotatable=0;" vertex="1" parent="7uKGe8dXWOPL08wrU0GV-1">
          <mxGeometry y="60" width="140" height="30" as="geometry" />
        </mxCell>
        <mxCell id="7uKGe8dXWOPL08wrU0GV-5" value="Develop" style="rounded=1;whiteSpace=wrap;html=1;glass=1;sketch=1;fillColor=#dae8fc;strokeColor=#6c8ebf;" vertex="1" parent="1">
          <mxGeometry x="110" y="240" width="100" height="50" as="geometry" />
        </mxCell>
        <mxCell id="7uKGe8dXWOPL08wrU0GV-6" value="GitLab" style="shape=dataStorage;whiteSpace=wrap;html=1;fixedSize=1;" vertex="1" parent="1">
          <mxGeometry x="299" y="520" width="120" height="30" as="geometry" />
        </mxCell>
        <mxCell id="7uKGe8dXWOPL08wrU0GV-7" value="Build&lt;br&gt;" style="rounded=1;whiteSpace=wrap;html=1;glass=1;sketch=1;fillColor=#dae8fc;strokeColor=#6c8ebf;" vertex="1" parent="1">
          <mxGeometry x="310" y="240" width="100" height="50" as="geometry" />
        </mxCell>
        <mxCell id="7uKGe8dXWOPL08wrU0GV-8" value="Deploy" style="rounded=1;whiteSpace=wrap;html=1;glass=1;sketch=1;fillColor=#dae8fc;strokeColor=#6c8ebf;" vertex="1" parent="1">
          <mxGeometry x="597" y="240" width="100" height="50" as="geometry" />
        </mxCell>
        <mxCell id="7uKGe8dXWOPL08wrU0GV-9" value="Test" style="rounded=1;whiteSpace=wrap;html=1;glass=1;sketch=1;fillColor=#dae8fc;strokeColor=#6c8ebf;" vertex="1" parent="1">
          <mxGeometry x="795" y="240" width="100" height="50" as="geometry" />
        </mxCell>
        <mxCell id="7uKGe8dXWOPL08wrU0GV-10" value="" style="endArrow=classic;html=1;rounded=0;exitX=1;exitY=0.5;exitDx=0;exitDy=0;fillColor=#dae8fc;strokeColor=#6c8ebf;" edge="1" parent="1" source="7uKGe8dXWOPL08wrU0GV-5">
          <mxGeometry width="50" height="50" relative="1" as="geometry">
            <mxPoint x="590" y="330" as="sourcePoint" />
            <mxPoint x="310" y="265" as="targetPoint" />
          </mxGeometry>
        </mxCell>
        <mxCell id="7uKGe8dXWOPL08wrU0GV-11" value="" style="endArrow=classic;html=1;rounded=0;exitX=1;exitY=0.5;exitDx=0;exitDy=0;fillColor=#dae8fc;strokeColor=#6c8ebf;entryX=0;entryY=0.5;entryDx=0;entryDy=0;" edge="1" parent="1" target="7uKGe8dXWOPL08wrU0GV-8">
          <mxGeometry width="50" height="50" relative="1" as="geometry">
            <mxPoint x="410" y="264.5" as="sourcePoint" />
            <mxPoint x="510" y="264.5" as="targetPoint" />
          </mxGeometry>
        </mxCell>
        <mxCell id="7uKGe8dXWOPL08wrU0GV-12" value="" style="endArrow=classic;html=1;rounded=0;fillColor=#dae8fc;strokeColor=#6c8ebf;entryX=0;entryY=0.5;entryDx=0;entryDy=0;" edge="1" parent="1" target="7uKGe8dXWOPL08wrU0GV-9">
          <mxGeometry width="50" height="50" relative="1" as="geometry">
            <mxPoint x="700" y="265" as="sourcePoint" />
            <mxPoint x="710" y="264.5" as="targetPoint" />
          </mxGeometry>
        </mxCell>
        <mxCell id="7uKGe8dXWOPL08wrU0GV-13" value="Test" style="whiteSpace=wrap;html=1;aspect=fixed;rounded=1;glass=1;sketch=1;fillColor=#d5e8d4;strokeColor=#82b366;" vertex="1" parent="1">
          <mxGeometry x="815" y="90" width="60" height="60" as="geometry" />
        </mxCell>
        <mxCell id="7uKGe8dXWOPL08wrU0GV-14" value="Acceptatie" style="whiteSpace=wrap;html=1;aspect=fixed;rounded=1;glass=1;sketch=1;fillColor=#d5e8d4;strokeColor=#82b366;" vertex="1" parent="1">
          <mxGeometry x="905" y="90" width="60" height="60" as="geometry" />
        </mxCell>
        <mxCell id="7uKGe8dXWOPL08wrU0GV-15" value="Preprod" style="whiteSpace=wrap;html=1;aspect=fixed;rounded=1;glass=1;sketch=1;fillColor=#d5e8d4;strokeColor=#82b366;" vertex="1" parent="1">
          <mxGeometry x="995" y="90" width="60" height="60" as="geometry" />
        </mxCell>
        <mxCell id="7uKGe8dXWOPL08wrU0GV-16" value="Production" style="whiteSpace=wrap;html=1;aspect=fixed;rounded=1;glass=1;sketch=1;fillColor=#d5e8d4;strokeColor=#82b366;" vertex="1" parent="1">
          <mxGeometry x="1085" y="90" width="60" height="60" as="geometry" />
        </mxCell>
        <mxCell id="7uKGe8dXWOPL08wrU0GV-17" value="" style="endArrow=classic;html=1;rounded=0;exitX=0.5;exitY=0;exitDx=0;exitDy=0;entryX=0.5;entryY=1;entryDx=0;entryDy=0;fillColor=#d5e8d4;strokeColor=#82b366;" edge="1" parent="1" source="7uKGe8dXWOPL08wrU0GV-9" target="7uKGe8dXWOPL08wrU0GV-13">
          <mxGeometry width="50" height="50" relative="1" as="geometry">
            <mxPoint x="675" y="330" as="sourcePoint" />
            <mxPoint x="725" y="280" as="targetPoint" />
          </mxGeometry>
        </mxCell>
        <mxCell id="7uKGe8dXWOPL08wrU0GV-18" value="" style="endArrow=classic;html=1;rounded=0;entryX=0.5;entryY=1;entryDx=0;entryDy=0;fillColor=#d5e8d4;strokeColor=#82b366;" edge="1" parent="1" target="7uKGe8dXWOPL08wrU0GV-14">
          <mxGeometry width="50" height="50" relative="1" as="geometry">
            <mxPoint x="845" y="240" as="sourcePoint" />
            <mxPoint x="855" y="160" as="targetPoint" />
          </mxGeometry>
        </mxCell>
        <mxCell id="7uKGe8dXWOPL08wrU0GV-19" value="" style="endArrow=classic;html=1;rounded=0;entryX=0.5;entryY=1;entryDx=0;entryDy=0;fillColor=#d5e8d4;strokeColor=#82b366;" edge="1" parent="1">
          <mxGeometry width="50" height="50" relative="1" as="geometry">
            <mxPoint x="845" y="240" as="sourcePoint" />
            <mxPoint x="935" y="150" as="targetPoint" />
          </mxGeometry>
        </mxCell>
        <mxCell id="7uKGe8dXWOPL08wrU0GV-20" value="" style="endArrow=classic;html=1;rounded=0;entryX=0.5;entryY=1;entryDx=0;entryDy=0;exitX=0.5;exitY=0;exitDx=0;exitDy=0;fillColor=#d5e8d4;strokeColor=#82b366;" edge="1" parent="1" source="7uKGe8dXWOPL08wrU0GV-9" target="7uKGe8dXWOPL08wrU0GV-15">
          <mxGeometry width="50" height="50" relative="1" as="geometry">
            <mxPoint x="855" y="250" as="sourcePoint" />
            <mxPoint x="945" y="160" as="targetPoint" />
          </mxGeometry>
        </mxCell>
        <mxCell id="7uKGe8dXWOPL08wrU0GV-21" value="" style="endArrow=classic;html=1;rounded=0;entryX=0.5;entryY=1;entryDx=0;entryDy=0;exitX=0.57;exitY=-0.04;exitDx=0;exitDy=0;exitPerimeter=0;fillColor=#d5e8d4;strokeColor=#82b366;dashed=1;" edge="1" parent="1" source="7uKGe8dXWOPL08wrU0GV-9" target="7uKGe8dXWOPL08wrU0GV-16">
          <mxGeometry width="50" height="50" relative="1" as="geometry">
            <mxPoint x="855" y="250" as="sourcePoint" />
            <mxPoint x="1035" y="160" as="targetPoint" />
          </mxGeometry>
        </mxCell>
        <mxCell id="7uKGe8dXWOPL08wrU0GV-24" value="Smoketest&amp;nbsp; Container" style="text;html=1;resizable=0;autosize=1;align=center;verticalAlign=middle;points=[];fillColor=none;strokeColor=none;rounded=0;glass=1;sketch=1;fontSize=35;" vertex="1" parent="1">
          <mxGeometry x="365" y="40" width="350" height="50" as="geometry" />
        </mxCell>
        <mxCell id="7uKGe8dXWOPL08wrU0GV-26" value="Base" style="rounded=0;whiteSpace=wrap;html=1;glass=1;sketch=1;fontSize=12;" vertex="1" parent="1">
          <mxGeometry x="600" y="480" width="120" height="30" as="geometry" />
        </mxCell>
        <mxCell id="7uKGe8dXWOPL08wrU0GV-27" value="Testframework" style="rounded=0;whiteSpace=wrap;html=1;glass=1;sketch=1;fontSize=12;" vertex="1" parent="1">
          <mxGeometry x="600" y="450" width="120" height="30" as="geometry" />
        </mxCell>
        <mxCell id="7uKGe8dXWOPL08wrU0GV-28" value="Testscripts" style="rounded=0;whiteSpace=wrap;html=1;glass=1;sketch=1;fontSize=12;" vertex="1" parent="1">
          <mxGeometry x="600" y="420" width="120" height="30" as="geometry" />
        </mxCell>
        <mxCell id="7uKGe8dXWOPL08wrU0GV-33" value="Smoketest 99.99.99-&amp;lt;timestamp&amp;gt;" style="text;html=1;resizable=0;autosize=1;align=center;verticalAlign=middle;points=[];fillColor=#e3c800;strokeColor=#B09500;rounded=0;glass=0;sketch=0;fontSize=12;fontColor=#000000;" vertex="1" parent="1">
          <mxGeometry x="750" y="370" width="200" height="20" as="geometry" />
        </mxCell>
        <mxCell id="7uKGe8dXWOPL08wrU0GV-35" value="Registry" style="shape=dataStorage;whiteSpace=wrap;html=1;fixedSize=1;" vertex="1" parent="1">
          <mxGeometry x="610" y="520" width="100" height="30" as="geometry" />
        </mxCell>
        <mxCell id="7uKGe8dXWOPL08wrU0GV-36" value="Testscripts" style="rounded=0;whiteSpace=wrap;html=1;glass=1;sketch=1;fontSize=12;" vertex="1" parent="1">
          <mxGeometry x="299" y="450" width="120" height="30" as="geometry" />
        </mxCell>
        <mxCell id="7uKGe8dXWOPL08wrU0GV-37" value="Smoketest 99.99.99-&amp;lt;timestamp&amp;gt;" style="text;html=1;resizable=0;autosize=1;align=center;verticalAlign=middle;points=[];fillColor=#e3c800;strokeColor=#B09500;rounded=0;glass=0;sketch=0;fontSize=12;fontColor=#000000;" vertex="1" parent="1">
          <mxGeometry x="270" y="370" width="200" height="20" as="geometry" />
        </mxCell>
        <mxCell id="7uKGe8dXWOPL08wrU0GV-40" value="Rapport" style="shape=document;whiteSpace=wrap;html=1;boundedLbl=1;rounded=0;glass=0;sketch=0;fontSize=12;verticalAlign=middle;" vertex="1" parent="1">
          <mxGeometry x="980" y="420" width="120" height="60" as="geometry" />
        </mxCell>
        <mxCell id="7uKGe8dXWOPL08wrU0GV-46" value="Configuratie" style="rounded=0;whiteSpace=wrap;html=1;glass=1;sketch=1;fontSize=12;" vertex="1" parent="1">
          <mxGeometry x="300" y="480" width="120" height="30" as="geometry" />
        </mxCell>
        <mxCell id="7uKGe8dXWOPL08wrU0GV-47" value="GitLab" style="shape=dataStorage;whiteSpace=wrap;html=1;fixedSize=1;" vertex="1" parent="1">
          <mxGeometry x="775" y="514" width="120" height="30" as="geometry" />
        </mxCell>
        <mxCell id="7uKGe8dXWOPL08wrU0GV-50" value="Configuratie" style="rounded=0;whiteSpace=wrap;html=1;glass=1;sketch=1;fontSize=12;" vertex="1" parent="1">
          <mxGeometry x="776" y="474" width="120" height="30" as="geometry" />
        </mxCell>
        <mxCell id="7uKGe8dXWOPL08wrU0GV-51" value="Tester" style="shape=umlActor;verticalLabelPosition=bottom;verticalAlign=top;html=1;outlineConnect=0;rounded=0;glass=0;sketch=0;fontSize=12;" vertex="1" parent="1">
          <mxGeometry x="106" y="610" width="20" height="40" as="geometry" />
        </mxCell>
        <mxCell id="7uKGe8dXWOPL08wrU0GV-54" value="Testscripts" style="rounded=0;whiteSpace=wrap;html=1;glass=1;sketch=1;fontSize=12;" vertex="1" parent="1">
          <mxGeometry x="90" y="450" width="120" height="30" as="geometry" />
        </mxCell>
        <mxCell id="7uKGe8dXWOPL08wrU0GV-57" value="CI/CD" style="shape=umlActor;verticalLabelPosition=bottom;verticalAlign=top;html=1;outlineConnect=0;rounded=0;glass=0;sketch=0;fontSize=12;" vertex="1" parent="1">
          <mxGeometry x="835" y="605" width="20" height="40" as="geometry" />
        </mxCell>
        <mxCell id="7uKGe8dXWOPL08wrU0GV-59" value="Rapportage" style="rounded=0;whiteSpace=wrap;html=1;glass=1;sketch=1;fontSize=12;" vertex="1" parent="1">
          <mxGeometry x="600" y="390" width="120" height="30" as="geometry" />
        </mxCell>
        <mxCell id="7uKGe8dXWOPL08wrU0GV-60" value="" style="sketch=0;pointerEvents=1;shadow=0;dashed=0;html=1;strokeColor=none;fillColor=#434445;aspect=fixed;labelPosition=center;verticalLabelPosition=bottom;verticalAlign=top;align=center;outlineConnect=0;shape=mxgraph.vvd.vrealize_automation;rounded=0;glass=0;fontSize=12;" vertex="1" parent="1">
          <mxGeometry x="335" y="610" width="50" height="50" as="geometry" />
        </mxCell>
        <mxCell id="7uKGe8dXWOPL08wrU0GV-61" value="" style="sketch=0;pointerEvents=1;shadow=0;dashed=0;html=1;strokeColor=none;fillColor=#434445;aspect=fixed;labelPosition=center;verticalLabelPosition=bottom;verticalAlign=top;align=center;outlineConnect=0;shape=mxgraph.vvd.vrealize_automation;rounded=0;glass=0;fontSize=12;" vertex="1" parent="1">
          <mxGeometry x="750" y="605" width="50" height="50" as="geometry" />
        </mxCell>
        <mxCell id="7uKGe8dXWOPL08wrU0GV-62" value="Tester" style="shape=umlActor;verticalLabelPosition=bottom;verticalAlign=top;html=1;outlineConnect=0;rounded=0;glass=0;sketch=0;fontSize=12;" vertex="1" parent="1">
          <mxGeometry x="890" y="605" width="20" height="40" as="geometry" />
        </mxCell>
        <mxCell id="7uKGe8dXWOPL08wrU0GV-63" value="CI/CD" style="shape=umlActor;verticalLabelPosition=bottom;verticalAlign=top;html=1;outlineConnect=0;rounded=0;glass=0;sketch=0;fontSize=12;" vertex="1" parent="1">
          <mxGeometry x="171" y="610" width="20" height="40" as="geometry" />
        </mxCell>
      </root>
    </mxGraphModel>
  </diagram>
</mxfile>
